<svg width="60" height="20" viewBox="0 0 60 20" fill="none" xmlns="http://www.w3.org/2000/svg">
<path d="M0.0301208 15.4836V14.9374C0.629919 14.8874 1.01193 14.7767 1.17617 14.6054C1.34039 14.434 1.42251 14.0627 1.42251 13.4914V2.78076C1.42251 2.20238 1.34039 1.83108 1.17617 1.66685C1.01908 1.49548 0.63706 1.37766 0.0301208 1.31339V0.788574C1.00836 0.888535 1.7474 0.938523 2.24723 0.938523C2.73992 0.938523 3.46468 0.888535 4.4215 0.788574V1.31339C3.8217 1.37766 3.44326 1.49548 3.28617 1.66685C3.13622 1.83108 3.06124 2.20238 3.06124 2.78076V13.4486C3.06124 13.9556 3.13622 14.2983 3.28617 14.4769C3.43612 14.6482 3.72888 14.7339 4.16444 14.7339H5.38546C6.08523 14.7339 6.59219 14.5482 6.90638 14.1769C7.22767 13.7985 7.50974 13.0559 7.75251 11.9491H8.17025L7.77393 15.4836H0.0301208Z" fill="#D5D5D5"/>
<path d="M9.25146 10.3108C9.25146 8.69701 9.56566 7.39391 10.194 6.40138C10.8224 5.40886 11.6471 4.9126 12.6682 4.9126C13.6608 4.9126 14.4355 5.35888 14.9924 6.25143C15.5494 7.13682 15.8493 8.40785 15.8921 10.0644H10.826C10.8474 11.0355 10.8902 11.771 10.9545 12.2708C11.0259 12.7707 11.1437 13.2348 11.3079 13.6632C11.4722 14.0845 11.7007 14.4094 11.9934 14.6379C12.2933 14.8664 12.6289 14.9806 13.0002 14.9806C13.6071 14.9806 14.1035 14.7308 14.489 14.2309C14.8817 13.7311 15.1245 13.0242 15.2173 12.1102H15.8921C15.785 13.2526 15.4637 14.138 14.9282 14.7664C14.3926 15.3877 13.6857 15.6982 12.8075 15.6982C11.7221 15.6982 10.8581 15.2127 10.2155 14.2416C9.57282 13.2705 9.25146 11.9602 9.25146 10.3108ZM10.8688 9.27185H14.3605C14.2748 6.74411 13.7036 5.48026 12.6468 5.48026C11.6328 5.48026 11.0402 6.74411 10.8688 9.27185Z" fill="#D5D5D5"/>
<path d="M17.3381 16.8015C17.3381 16.2446 17.4738 15.7769 17.7451 15.3984C18.0165 15.02 18.4448 14.7058 19.0304 14.4559C18.7162 14.2774 18.4913 14.0917 18.3556 13.8989C18.2199 13.7061 18.1521 13.4669 18.1521 13.1813C18.1521 12.3744 18.7662 11.7746 19.9943 11.3819C19.3445 11.1391 18.8447 10.75 18.4948 10.2144C18.1521 9.67179 17.9807 9.02198 17.9807 8.26508C17.9807 7.22262 18.2556 6.40859 18.8054 5.82307C19.3553 5.23041 20.1193 4.93408 21.0976 4.93408C21.783 4.93408 22.3828 5.12331 22.8969 5.50175H25.2212V6.38002L23.5503 6.31576C23.8288 6.86559 23.968 7.47966 23.968 8.15798C23.968 9.27908 23.6324 10.1431 22.9612 10.75C22.7398 10.9357 22.5221 11.0856 22.3078 11.1999C22.0936 11.3069 21.7473 11.4426 21.2689 11.6068L20.7655 11.7782C20.18 11.9782 19.7872 12.1495 19.5874 12.2923C19.3945 12.428 19.2981 12.5993 19.2981 12.8064C19.2981 13.0635 19.4124 13.2491 19.6409 13.3634C19.8694 13.4705 20.2657 13.5276 20.8297 13.5348C21.2225 13.5419 21.6688 13.5955 22.1686 13.6954C22.6685 13.7882 23.0397 13.8882 23.2825 13.9953C23.7752 14.2024 24.1537 14.5237 24.4179 14.9593C24.6892 15.3877 24.8248 15.8982 24.8248 16.4909C24.8248 17.4763 24.4714 18.2796 23.7645 18.9008C23.0576 19.522 22.1365 19.8326 21.0012 19.8326C19.9015 19.8326 19.0161 19.5542 18.3449 18.9972C17.6737 18.4402 17.3381 17.7084 17.3381 16.8015ZM18.1092 16.9729C18.1092 17.6013 18.3734 18.1189 18.9019 18.5259C19.4374 18.9401 20.1157 19.1471 20.9368 19.1471C21.7723 19.1471 22.4328 18.9579 22.9183 18.5795C23.411 18.2011 23.6574 17.6869 23.6574 17.0371C23.6574 16.4088 23.411 15.9304 22.9183 15.6019C22.4328 15.2735 21.7295 15.1092 20.8083 15.1092C19.9515 15.1092 19.2874 15.2699 18.8161 15.5912C18.3449 15.9197 18.1092 16.3802 18.1092 16.9729ZM19.4267 8.11514C19.4267 9.02914 19.5588 9.7325 19.823 10.2251C20.0872 10.7179 20.4656 10.9642 20.9583 10.9642C21.451 10.9642 21.8294 10.7179 22.0936 10.2251C22.365 9.7325 22.5007 9.0363 22.5007 8.13656C22.5007 7.28688 22.3685 6.63353 22.1043 6.17652C21.8401 5.71239 21.4724 5.48033 21.0012 5.48033C20.5085 5.48033 20.1228 5.71597 19.8444 6.18723C19.5659 6.65849 19.4267 7.30114 19.4267 8.11514Z" fill="#D5D5D5"/>
<path d="M27.3418 14.22C26.7064 13.2133 26.3885 11.9101 26.3885 10.3106C26.3885 8.71121 26.7135 7.4045 27.3633 6.39054C28.013 5.3766 28.8556 4.86963 29.891 4.86963C30.7335 4.86963 31.4369 5.21951 32.001 5.91927C32.3651 6.38341 32.6614 7.01889 32.89 7.82579C33.1185 8.62553 33.2327 9.44669 33.2327 10.2892C33.2327 11.8744 32.9114 13.1775 32.2687 14.1986C31.6261 15.2197 30.8049 15.7302 29.8053 15.7302C28.7985 15.7302 27.9773 15.2269 27.3418 14.22ZM28.0059 10.3535C28.0059 13.5524 28.6057 15.1519 29.8053 15.1519C30.3908 15.1519 30.8371 14.7449 31.1441 13.9309C31.4511 13.1097 31.6047 11.9173 31.6047 10.3535C31.6047 7.07605 31.012 5.43729 29.8267 5.43729C29.234 5.43729 28.7806 5.85858 28.4664 6.70114C28.1594 7.54373 28.0059 8.76121 28.0059 10.3535Z" fill="#D5D5D5"/>
<path d="M35.0214 8.20072C35.0214 5.88724 35.4534 4.04143 36.3174 2.66332C37.1814 1.27807 38.3382 0.585449 39.7877 0.585449C40.3732 0.585449 40.8766 0.685412 41.2979 0.885348C41.7263 1.08528 42.1226 1.41017 42.4868 1.86002L43.0759 0.639002H43.4293V4.93399H42.9902C42.7474 3.69155 42.3797 2.774 41.887 2.18134C41.4014 1.58868 40.7659 1.29235 39.9805 1.29235C38.9379 1.29235 38.1383 1.88144 37.5813 3.05962C37.0315 4.23779 36.7566 5.93722 36.7566 8.15788C36.7566 10.2715 37.035 11.903 37.592 13.0527C38.149 14.2023 38.9451 14.7771 39.9805 14.7771C40.8374 14.7771 41.5228 14.4058 42.0369 13.6632C42.5582 12.9206 42.8509 11.8816 42.9152 10.5464H43.5578C43.5079 12.1816 43.1366 13.4632 42.4439 14.3915C41.7585 15.3127 40.8409 15.7732 39.6913 15.7732C38.2846 15.7732 37.1528 15.0806 36.296 13.6953C35.4463 12.3101 35.0214 10.4785 35.0214 8.20072Z" fill="#D5D5D5"/>
<path d="M45.5822 12.8707C45.5822 11.7497 46.0213 10.8821 46.8996 10.268C47.7779 9.63249 48.8311 9.22191 50.0593 9.0363V7.47249C50.0593 6.80133 49.9522 6.30862 49.738 5.99444C49.5237 5.68026 49.1917 5.52317 48.7418 5.52317C48.3348 5.52317 48.01 5.63385 47.7672 5.8552C47.5244 6.07655 47.403 6.36931 47.403 6.73346V6.99056C47.4173 7.09049 47.4244 7.21546 47.4244 7.3654C47.4244 7.65817 47.3566 7.88669 47.2209 8.05088C47.0853 8.20798 46.896 8.28656 46.6533 8.28656C46.232 8.28656 46.0213 8.04017 46.0213 7.54746C46.0213 6.83346 46.3034 6.21937 46.8674 5.70525C47.4387 5.19114 48.1134 4.93408 48.8918 4.93408C49.4131 4.93408 49.8807 5.05547 50.2949 5.29824C50.7162 5.53388 51.0303 5.86591 51.2374 6.29434C51.4731 6.71566 51.5909 7.43327 51.5909 8.4472V13.0313C51.5909 13.7526 51.6373 14.2595 51.7301 14.5523C51.8301 14.8379 52.0014 14.9807 52.2442 14.9807C52.3228 14.9807 52.4691 14.9593 52.6834 14.9164V15.4841C52.2764 15.584 51.9336 15.634 51.6551 15.634C51.2267 15.634 50.9018 15.4913 50.6805 15.2057C50.4663 14.92 50.3306 14.463 50.2734 13.8347C49.9878 14.4916 49.6701 14.9629 49.3202 15.2485C48.9703 15.5341 48.5276 15.6769 47.9921 15.6769C47.278 15.6769 46.6961 15.4198 46.2462 14.9057C45.8035 14.3845 45.5822 13.7061 45.5822 12.8707ZM47.1567 12.7422C47.1567 13.3706 47.2745 13.8597 47.5101 14.2095C47.7458 14.5594 48.0742 14.7344 48.4955 14.7344C49.031 14.7344 49.4238 14.4773 49.6736 13.9632C49.9307 13.4419 50.0593 12.6172 50.0593 11.489V9.60391C49.0453 9.83243 48.3063 10.1966 47.8422 10.6964C47.3851 11.1891 47.1567 11.871 47.1567 12.7422Z" fill="#D5D5D5"/>
<path d="M53.7758 15.5479V15.1088C54.2828 15.0731 54.6077 14.9874 54.7505 14.8517C54.8933 14.709 54.9647 14.4019 54.9647 13.9306V7.06508C54.9647 6.4867 54.929 6.1261 54.8576 5.98329C54.7362 5.78336 54.4756 5.68339 54.0758 5.68339C54.04 5.68339 54.0008 5.68339 53.9579 5.68339C53.8937 5.68339 53.8401 5.69053 53.7972 5.70481V5.30852C54.8541 5.15143 55.6288 4.97648 56.1215 4.78369C56.2143 5.42633 56.2821 6.11896 56.325 6.86154C56.4892 6.22607 56.7463 5.73694 57.0961 5.3942C57.4532 5.04432 57.8745 4.86938 58.36 4.86938C58.8027 4.86938 59.1633 5.02647 59.4418 5.34065C59.7203 5.65483 59.8595 6.06897 59.8595 6.58308C59.8595 6.92586 59.7845 7.19715 59.6346 7.39708C59.4847 7.59702 59.2811 7.69702 59.0241 7.69702C58.8027 7.69702 58.6207 7.62915 58.4778 7.49347C58.3421 7.3507 58.2743 7.17573 58.2743 6.9687C58.2743 6.88296 58.3029 6.72947 58.36 6.50812C58.3743 6.45099 58.3814 6.37244 58.3814 6.27248C58.3814 6.13681 58.3386 6.02256 58.2529 5.92974C58.1672 5.83691 58.0565 5.7905 57.9208 5.7905C57.4781 5.7905 57.1283 6.10825 56.8712 6.74373C56.6213 7.37212 56.4963 8.23967 56.4963 9.34644V13.9306C56.4963 14.3876 56.5749 14.6946 56.732 14.8517C56.8962 15.0088 57.2211 15.0945 57.7067 15.1088V15.5479C56.9712 15.4622 56.3143 15.4194 55.7359 15.4194C55.1647 15.4194 54.5113 15.4622 53.7758 15.5479Z" fill="#D5D5D5"/>
</svg>
